<svg width="563" height="287" viewBox="0 0 563 287" fill="none" xmlns="http://www.w3.org/2000/svg">
<path d="M190.894 63.7122C185.736 53.3295 182.22 49.082 177.296 39.1712C171.67 27.8446 174.512 -7.3233e-06 207.304 -7.89846e-06C265.555 -8.92186e-06 301.227 0.459499 362.242 0.459498C386.155 1.87533 392.977 25.9578 384.537 43.4196L341.871 117.515C330.618 136.864 308.112 135.448 298.735 126.01C289.358 116.571 290.295 111.851 290.295 111.851C290.764 109.492 305.299 86.3664 305.299 86.3664C305.299 86.3664 310.699 95.2974 313.739 100.997C316.779 106.696 317.976 105.024 321.71 97.693L360.626 30.2052C361.564 27.3736 360.157 27.3736 355 27.3736L355 27.3736L210.17 27.1821C201.286 27.2195 203.084 29.2604 205.898 34.9237L242.938 99.5192C245.653 105.125 248.276 105.867 250.991 99.5192C250.991 99.5192 274.353 58.5209 279.979 48.6101C285.606 38.6993 291.232 40.5871 299.672 40.5871L310.925 40.5871L316.082 40.5871L273.884 114.21C261.173 139.371 235.063 137.557 222.883 118.866C220.202 114.751 218.244 110.197 215.754 105.964L190.894 63.7122Z" fill="url(#paint0_linear_68_2)"/>
<path d="M156.191 187.137V187.82C156.191 191.629 154.857 194.884 152.188 197.586C154.857 200.288 156.191 203.543 156.191 207.352V208.084C156.191 211.925 154.824 215.213 152.09 217.947C149.355 220.649 146.068 222 142.227 222H86.8555C86.7253 222 86.6113 221.967 86.5137 221.902C86.4486 221.805 86.416 221.707 86.416 221.609V173.611C86.416 173.481 86.4486 173.383 86.5137 173.318C86.6113 173.221 86.7253 173.172 86.8555 173.172H142.227C146.068 173.172 149.355 174.539 152.09 177.273C154.824 180.008 156.191 183.296 156.191 187.137ZM96.1816 181.57V193.436H142.227C143.366 193.436 144.342 193.029 145.156 192.215C146.003 191.368 146.426 190.376 146.426 189.236V185.721C146.426 184.581 146.003 183.605 145.156 182.791C144.342 181.977 143.366 181.57 142.227 181.57H96.1816ZM146.426 209.451V205.984C146.426 204.812 146.003 203.82 145.156 203.006C144.342 202.192 143.366 201.785 142.227 201.785H96.1816V213.65H142.227C143.366 213.65 144.342 213.243 145.156 212.43C146.003 211.616 146.426 210.623 146.426 209.451ZM232.615 214.041C232.615 213.943 232.566 213.862 232.469 213.797C232.404 213.699 232.322 213.65 232.225 213.65H176.854C175.682 213.65 174.689 213.243 173.875 212.43C173.061 211.583 172.654 210.59 172.654 209.451V173.611C172.654 173.481 172.605 173.383 172.508 173.318C172.443 173.221 172.345 173.172 172.215 173.172H163.279C163.182 173.172 163.084 173.221 162.986 173.318C162.921 173.383 162.889 173.481 162.889 173.611V208.035C162.889 211.909 164.24 215.213 166.941 217.947C169.676 220.649 172.98 222 176.854 222H232.225C232.322 222 232.404 221.967 232.469 221.902C232.566 221.805 232.615 221.707 232.615 221.609V214.041ZM309.039 173.611C309.039 173.481 308.99 173.383 308.893 173.318C308.827 173.221 308.73 173.172 308.6 173.172H299.713C299.583 173.172 299.469 173.221 299.371 173.318C299.306 173.383 299.273 173.481 299.273 173.611V209.451C299.273 210.623 298.867 211.616 298.053 212.43C297.239 213.243 296.246 213.65 295.074 213.65H253.229C252.089 213.65 251.096 213.243 250.25 212.43C249.436 211.616 249.029 210.623 249.029 209.451V173.611C249.029 173.481 248.98 173.383 248.883 173.318C248.818 173.221 248.736 173.172 248.639 173.172H239.703C239.573 173.172 239.459 173.221 239.361 173.318C239.296 173.383 239.264 173.481 239.264 173.611V208.084C239.264 211.925 240.631 215.213 243.365 217.947C246.1 220.649 249.387 222 253.229 222H295.074C298.948 222 302.236 220.649 304.938 217.947C307.672 215.213 309.039 211.925 309.039 208.084V173.611ZM385.463 192.02C385.463 194.852 384.714 197.407 383.217 199.686C381.719 201.932 379.734 203.608 377.26 204.715L377.455 205.105L385.219 221.414C385.251 221.544 385.235 221.674 385.17 221.805C385.105 221.935 384.991 222 384.828 222H374.916C374.753 222 374.623 221.919 374.525 221.756L367.006 205.984H325.502V221.609C325.502 221.707 325.453 221.805 325.355 221.902C325.29 221.967 325.193 222 325.062 222H316.127C316.029 222 315.932 221.967 315.834 221.902C315.769 221.805 315.736 221.707 315.736 221.609V173.611C315.736 173.481 315.769 173.383 315.834 173.318C315.932 173.221 316.029 173.172 316.127 173.172H371.547C375.388 173.172 378.66 174.539 381.361 177.273C384.096 179.975 385.463 183.263 385.463 187.137V192.02ZM325.502 197.586H371.547C372.686 197.586 373.663 197.179 374.477 196.365C375.29 195.551 375.697 194.559 375.697 193.387V185.721C375.697 184.581 375.29 183.605 374.477 182.791C373.663 181.977 372.686 181.57 371.547 181.57H325.502V197.586ZM447.922 173.172C451.796 173.172 455.083 174.539 457.785 177.273C460.52 179.975 461.887 183.263 461.887 187.137V208.035C461.887 211.909 460.52 215.213 457.785 217.947C455.083 220.649 451.796 222 447.922 222H406.076C402.235 222 398.947 220.649 396.213 217.947C393.479 215.213 392.111 211.909 392.111 208.035V187.137C392.111 183.263 393.479 179.975 396.213 177.273C398.947 174.539 402.235 173.172 406.076 173.172H447.922ZM452.121 185.721C452.121 184.581 451.714 183.605 450.9 182.791C450.087 181.945 449.094 181.521 447.922 181.521H406.076C404.937 181.521 403.944 181.945 403.098 182.791C402.284 183.605 401.877 184.581 401.877 185.721V209.451C401.877 210.59 402.284 211.583 403.098 212.43C403.944 213.243 404.937 213.65 406.076 213.65H447.922C449.094 213.65 450.087 213.243 450.9 212.43C451.714 211.583 452.121 210.59 452.121 209.451V185.721Z" fill="#86A1FF"/>
<defs>
<linearGradient id="paint0_linear_68_2" x1="388" y1="66.5" x2="175" y2="66.5" gradientUnits="userSpaceOnUse">
<stop stop-color="#3183FF"/>
<stop offset="1" stop-color="#F3458C"/>
</linearGradient>
</defs>
</svg>
